<svg width="344" height="117" viewBox="0 0 344 117" fill="none" xmlns="http://www.w3.org/2000/svg">
<path d="M47.646 1.3397C50.7401 -0.446602 54.552 -0.446602 57.646 1.3397L98.614 24.9925L70.286 41.5799C65.901 37.1776 59.8325 34.4531 53.128 34.4531C46.1554 34.4531 39.871 37.3999 35.4523 42.1161L6.44159 25.1291L47.646 1.3397Z" fill="#33CC95"/>
<path d="M29.9303 51.6964L0.914093 34.7063V82.2L29.8222 65.273C29.2287 63.1738 28.9111 60.959 28.9111 58.67C28.9111 56.2458 29.2673 53.9048 29.9303 51.6964Z" fill="#33CC95"/>
<path d="M35.1924 74.942L6.89749 91.51L47.646 115.036C50.74 116.822 54.552 116.822 57.646 115.036L98.158 91.647L70.556 75.484C66.152 80.048 59.9714 82.887 53.128 82.887C46.0175 82.887 39.6227 79.822 35.1924 74.942Z" fill="#33CC95"/>
<path d="M76.22 65.987L104.376 82.474C104.377 82.41 104.378 82.346 104.378 82.282V34.4312L76.101 50.9884C76.908 53.402 77.345 55.985 77.345 58.67C77.345 61.2203 76.951 63.6785 76.22 65.987Z" fill="#33CC95"/>
<path fill-rule="evenodd" clip-rule="evenodd" d="M137.893 85.923C141.951 88.4 146.827 89.639 152.519 89.639C158.211 89.639 163.086 88.4 167.145 85.923C171.23 83.419 174.352 79.941 176.513 75.487C178.701 71.034 179.794 65.868 179.794 59.9918C179.794 54.1151 178.701 48.9499 176.513 44.4962C174.352 40.0426 171.23 36.5772 167.145 34.1C163.086 31.5965 158.211 30.3447 152.519 30.3447C146.827 30.3447 141.951 31.5965 137.893 34.1C133.835 36.5772 130.712 40.0426 128.525 44.4962C126.364 48.9499 125.283 54.1151 125.283 59.9918C125.283 65.868 126.364 71.034 128.525 75.487C130.712 79.941 133.835 83.419 137.893 85.923ZM162.046 78.136C159.516 79.849 156.34 80.692 152.519 80.666C148.698 80.613 145.509 79.73 142.953 78.017C140.423 76.304 138.526 73.919 137.261 70.862C135.996 67.779 135.363 64.1555 135.363 59.9918C135.363 55.828 135.996 52.1913 137.261 49.0816C138.552 45.972 140.462 43.5607 142.992 41.8478C145.522 40.1348 148.698 39.2915 152.519 39.3179C156.34 39.3706 159.516 40.2534 162.046 41.9664C164.602 43.6793 166.512 46.0774 167.777 49.1607C169.069 52.2176 169.714 55.828 169.714 59.9918C169.714 64.1555 169.069 67.792 167.777 70.902C166.512 74.012 164.602 76.423 162.046 78.136Z" fill="white"/>
<path d="M184.5 86.453C184.5 87.557 185.395 88.453 186.5 88.453H192.066C193.171 88.453 194.066 87.557 194.066 86.453V66.751C194.066 65.117 194.264 63.6021 194.659 62.2054C195.054 60.7823 195.66 59.5174 196.477 58.4106C197.321 57.3038 198.401 56.3946 199.719 55.683C201.036 54.8925 202.512 54.4313 204.146 54.2995C204.759 54.2509 205.345 54.2363 205.904 54.256C207.237 54.3027 208.534 53.322 208.534 51.9886V47.4554C208.534 46.4778 207.827 45.6297 206.851 45.5753C206.12 45.5345 205.376 45.5438 204.62 45.6031C203.276 45.6821 201.959 45.9325 200.668 46.3541C199.403 46.7494 198.243 47.3028 197.189 48.0144C195.95 48.7786 194.883 49.7536 193.987 50.9395C193.597 51.4599 193.241 52.0068 192.92 52.5802V47.7612C192.92 46.6566 192.024 45.7612 190.92 45.7612H186.5C185.395 45.7612 184.5 46.6566 184.5 47.7612V86.453Z" fill="white"/>
<path fill-rule="evenodd" clip-rule="evenodd" d="M233.431 89.639C229.267 89.639 225.775 88.651 222.955 86.674C222.357 86.255 221.791 85.804 221.256 85.321V86.453C221.256 87.557 220.36 88.453 219.256 88.453H214.836C213.731 88.453 212.836 87.557 212.836 86.453V33.5306C212.836 32.426 213.731 31.5306 214.836 31.5306H220.441C221.546 31.5306 222.441 32.426 222.441 33.5306V47.8297C222.572 47.7314 222.703 47.6349 222.837 47.54C225.604 45.5635 229.016 44.5753 233.075 44.5753C237.107 44.5753 240.599 45.5635 243.55 47.54C246.528 49.4901 248.834 52.1649 250.468 55.5645C252.102 58.9376 252.919 62.7852 252.919 67.107C252.919 71.376 252.115 75.211 250.507 78.61C248.9 82.01 246.633 84.698 243.708 86.674C240.783 88.651 237.357 89.639 233.431 89.639ZM222.323 59.7941C221.611 61.876 221.256 64.3136 221.256 67.107C221.256 69.874 221.611 72.312 222.323 74.42C223.061 76.528 224.207 78.175 225.762 79.361C227.343 80.521 229.412 81.1 231.968 81.1C234.445 81.1 236.488 80.481 238.095 79.243C239.703 78.004 240.888 76.331 241.653 74.222C242.443 72.088 242.839 69.716 242.839 67.107C242.839 64.5244 242.443 62.179 241.653 60.0708C240.862 57.9362 239.637 56.2496 237.976 55.011C236.316 53.7461 234.208 53.1136 231.652 53.1136C229.227 53.1136 227.251 53.7066 225.722 54.8925C224.194 56.052 223.061 57.6859 222.323 59.7941Z" fill="white"/>
<path d="M259.26 86.453C259.26 87.557 260.155 88.453 261.26 88.453H266.787C267.891 88.453 268.787 87.557 268.787 86.453V47.7612C268.787 46.6566 267.891 45.7612 266.787 45.7612H261.26C260.155 45.7612 259.26 46.6566 259.26 47.7612V86.453Z" fill="white"/>
<path d="M302.487 86.792C302.487 87.755 301.802 88.587 300.849 88.726C298.594 89.056 296.373 89.189 294.186 89.125C291.498 89.072 289.087 88.585 286.952 87.662C284.818 86.714 283.197 85.225 282.09 83.195C281.115 81.351 280.601 79.467 280.548 77.543C280.496 75.619 280.469 73.445 280.469 71.02V53.2322H274.722C273.617 53.2322 272.722 52.3368 272.722 51.2322V47.7612C272.722 46.6566 273.617 45.7612 274.722 45.7612H280.469V35.9024C280.469 34.7978 281.365 33.9024 282.469 33.9024H287.956C289.061 33.9024 289.956 34.7978 289.956 35.9024V45.7612H300.487C301.592 45.7612 302.487 46.6566 302.487 47.7612V51.2322C302.487 52.3368 301.592 53.2322 300.487 53.2322H289.956V70.467C289.956 72.18 289.97 73.682 289.996 74.973C290.049 76.265 290.325 77.319 290.826 78.136C291.775 79.717 293.29 80.6 295.372 80.784C296.833 80.914 298.438 80.9 300.185 80.744C301.402 80.635 302.487 81.565 302.487 82.787V86.792Z" fill="white"/>
<path d="M313.617 86.714C316.726 88.664 320.481 89.639 324.882 89.639C329.652 89.639 333.684 88.479 336.978 86.16C339.74 84.194 341.807 81.524 343.179 78.151C343.617 77.074 342.929 75.903 341.794 75.65L335.928 74.338C334.93 74.115 333.942 74.692 333.491 75.61C332.807 77.002 331.927 78.12 330.851 78.966C329.402 80.125 327.412 80.705 324.882 80.705C321.298 80.705 318.597 79.453 316.779 76.95C314.961 74.446 314.051 71.165 314.051 67.107C314.051 64.4981 314.433 62.1659 315.198 60.1103C315.962 58.0548 317.148 56.4473 318.755 55.2878C320.363 54.1019 322.405 53.5089 324.882 53.5089C327.07 53.5089 329.02 54.1546 330.733 55.4459C331.977 56.3645 332.964 57.5543 333.693 59.015C334.171 59.9705 335.22 60.5627 336.251 60.2835L342.014 58.7226C343.061 58.4391 343.703 57.3672 343.343 56.3438C342.169 53.0031 340.153 50.3057 337.295 48.2515C333.948 45.8007 329.85 44.5753 325.001 44.5753C320.679 44.5753 316.95 45.5504 313.814 47.5005C310.678 49.4242 308.254 52.0859 306.541 55.4854C304.854 58.8586 303.998 62.7324 303.971 67.107C303.998 71.403 304.828 75.25 306.462 78.65C308.122 82.049 310.507 84.737 313.617 86.714Z" fill="white"/>
<path d="M259.033 34.2575L261.716 31.5744C262.887 30.4029 264.787 30.4029 265.958 31.5744L268.641 34.2575C269.813 35.4291 269.813 37.3286 268.641 38.5002L265.958 41.1833C264.787 42.3548 262.887 42.3548 261.716 41.1833L259.033 38.5002C257.861 37.3286 257.861 35.4291 259.033 34.2575Z" fill="white"/>
</svg>
